<svg width="273" height="65" viewBox="0 0 273 65" fill="none" xmlns="http://www.w3.org/2000/svg">
<path d="M36.4976 23.968C36.4976 26.144 36.0176 27.872 35.0576 29.152C34.1616 30.368 32.9456 30.976 31.4096 30.976C30.8976 30.976 30.3536 30.88 29.7776 30.688C29.2016 30.496 28.6256 30.208 28.0496 29.824C28.4336 28.8 28.7216 27.808 28.9136 26.848C29.1056 25.888 29.2016 24.992 29.2016 24.16C29.2016 22.88 28.9776 21.92 28.5296 21.28C28.0816 20.576 27.4096 20.224 26.5136 20.224C23.6976 20.224 20.9456 23.488 18.2576 30.016C15.5696 36.48 14.2256 42.624 14.2256 48.448C14.2256 51.392 14.7056 53.472 15.6656 54.688C16.6896 55.904 18.5136 56.512 21.1376 56.512C24.1456 56.512 26.8976 55.84 29.3936 54.496C31.9536 53.088 34.8656 50.528 38.1296 46.816H41.3936C37.6816 52.832 33.6496 57.312 29.2976 60.256C24.9456 63.136 20.1776 64.576 14.9936 64.576C10.0656 64.576 6.32162 63.296 3.76163 60.736C1.26562 58.176 0.017625 54.368 0.017625 49.312C0.017625 45.664 0.561625 41.792 1.64963 37.696C2.80163 33.6 4.36963 29.952 6.35363 26.752C8.72163 22.912 11.5376 20.032 14.8016 18.112C18.1296 16.128 21.8096 15.136 25.8416 15.136C29.3616 15.136 32.0176 15.904 33.8096 17.44C35.6016 18.912 36.4976 21.088 36.4976 23.968ZM54.2351 55.264C55.8991 55.264 57.3711 54.56 58.6511 53.152C59.9951 51.68 61.0831 49.568 61.9151 46.816L68.4431 16H82.2671L75.3551 48.64C75.2271 49.216 75.1311 49.76 75.0671 50.272C75.0031 50.72 74.9711 51.2 74.9711 51.712C74.9711 52.992 75.2591 53.92 75.8351 54.496C76.4751 55.008 77.4991 55.264 78.9071 55.264C80.5711 55.264 82.0751 54.528 83.4191 53.056C84.7631 51.584 85.8511 49.504 86.6831 46.816H90.7151C88.6671 52.704 86.0111 57.152 82.7471 60.16C79.4831 63.104 75.7071 64.576 71.4191 64.576C68.6671 64.576 66.4591 63.808 64.7951 62.272C63.1311 60.672 62.1711 58.4 61.9151 55.456C60.0591 58.528 57.9471 60.832 55.5791 62.368C53.2751 63.84 50.6511 64.576 47.7071 64.576C44.5071 64.576 41.9791 63.584 40.1231 61.6C38.3311 59.552 37.4351 56.704 37.4351 53.056C37.4351 52.224 37.4991 51.296 37.6271 50.272C37.7551 49.184 37.9471 48.032 38.2031 46.816L44.7311 16H58.5551L51.6431 48.64C51.5151 49.152 51.4191 49.632 51.3551 50.08C51.3551 50.464 51.3551 50.88 51.3551 51.328C51.3551 52.608 51.5791 53.6 52.0271 54.304C52.5391 54.944 53.2751 55.264 54.2351 55.264ZM96.8479 64H83.0239L93.1999 16H107.024L105.776 21.952C108.592 19.584 110.8 18.016 112.4 17.248C114.064 16.416 115.728 16 117.392 16C119.376 16 120.976 16.704 122.192 18.112C123.408 19.456 124.016 21.152 124.016 23.2C124.016 25.184 123.376 26.848 122.096 28.192C120.816 29.536 119.152 30.208 117.104 30.208C116.016 30.208 115.152 29.952 114.512 29.44C113.936 28.928 113.52 27.872 113.264 26.272C113.072 25.248 112.848 24.608 112.592 24.352C112.336 24.032 111.984 23.872 111.536 23.872C110.448 23.872 109.424 24.096 108.464 24.544C107.504 24.992 106.192 25.984 104.528 27.52L96.8479 64ZM131.629 64H117.805L127.981 16H141.805L140.557 21.952C143.373 19.584 145.581 18.016 147.181 17.248C148.845 16.416 150.509 16 152.173 16C154.157 16 155.757 16.704 156.973 18.112C158.189 19.456 158.797 21.152 158.797 23.2C158.797 25.184 158.157 26.848 156.877 28.192C155.597 29.536 153.933 30.208 151.885 30.208C150.797 30.208 149.933 29.952 149.293 29.44C148.717 28.928 148.301 27.872 148.045 26.272C147.853 25.248 147.629 24.608 147.373 24.352C147.117 24.032 146.765 23.872 146.317 23.872C145.229 23.872 144.205 24.096 143.245 24.544C142.285 24.992 140.973 25.984 139.309 27.52L131.629 64ZM192.591 24.352C192.591 29.664 190.415 34.304 186.063 38.272C181.711 42.176 176.527 44.288 170.511 44.608C170.447 45.696 170.383 46.528 170.319 47.104C170.319 47.616 170.319 48.064 170.319 48.448C170.319 51.392 170.799 53.472 171.759 54.688C172.783 55.904 174.607 56.512 177.231 56.512C180.239 56.512 182.991 55.84 185.487 54.496C188.047 53.088 190.959 50.528 194.223 46.816H197.487C193.775 52.832 189.743 57.312 185.391 60.256C181.039 63.136 176.271 64.576 171.087 64.576C166.159 64.576 162.415 63.296 159.855 60.736C157.359 58.176 156.111 54.368 156.111 49.312C156.111 45.664 156.687 41.792 157.839 37.696C158.991 33.6 160.527 29.952 162.447 26.752C164.815 22.912 167.631 20.032 170.895 18.112C174.223 16.128 177.935 15.136 182.031 15.136C185.551 15.136 188.175 15.904 189.903 17.44C191.695 18.912 192.591 21.216 192.591 24.352ZM182.799 20.224C180.623 20.224 178.415 22.176 176.175 26.08C173.999 29.92 172.367 34.56 171.279 40C174.991 39.744 178.223 38.048 180.975 34.912C183.791 31.712 185.199 28.128 185.199 24.16C185.199 22.816 185.007 21.824 184.623 21.184C184.239 20.544 183.631 20.224 182.799 20.224ZM218 53.728C218 52.576 218.128 51.136 218.384 49.408C218.704 47.68 219.312 44.928 220.208 41.152C221.104 37.504 221.68 34.88 221.936 33.28C222.192 31.68 222.32 30.336 222.32 29.248C222.32 27.648 222.032 26.432 221.456 25.6C220.88 24.768 220.016 24.352 218.864 24.352C217.328 24.352 215.888 25.152 214.544 26.752C213.264 28.288 212.208 30.432 211.376 33.184L204.848 64H191.024L201.2 16H215.024L213.968 20.992C215.568 19.2 217.296 17.856 219.152 16.96C221.008 16.064 223.024 15.616 225.2 15.616C228.592 15.616 231.216 16.544 233.072 18.4C234.928 20.256 235.856 22.944 235.856 26.464C235.856 27.936 235.664 29.696 235.28 31.744C234.96 33.728 234.288 36.8 233.264 40.96C232.432 44.224 231.888 46.528 231.632 47.872C231.376 49.216 231.248 50.336 231.248 51.232C231.248 52.576 231.568 53.6 232.208 54.304C232.848 54.944 233.808 55.264 235.088 55.264C236.688 55.264 238.064 54.72 239.216 53.632C240.368 52.544 241.68 50.272 243.152 46.816H247.184C245.136 52.768 242.64 57.216 239.696 60.16C236.816 63.104 233.36 64.576 229.328 64.576C225.744 64.576 222.96 63.616 220.976 61.696C218.992 59.712 218 57.056 218 53.728ZM246.501 16H249.669L252.549 2.752L266.757 0.831995L263.493 16H269.253L268.485 19.84H262.725L256.581 48.64C256.453 49.216 256.357 49.76 256.293 50.272C256.229 50.72 256.197 51.2 256.197 51.712C256.197 52.992 256.485 53.92 257.061 54.496C257.701 55.008 258.725 55.264 260.133 55.264C261.925 55.264 263.621 54.496 265.221 52.96C266.821 51.36 268.005 49.312 268.773 46.816H272.805C270.757 52.64 268.005 57.056 264.549 60.064C261.093 63.072 257.125 64.576 252.645 64.576C249.445 64.576 246.917 63.584 245.061 61.6C243.269 59.552 242.373 56.704 242.373 53.056C242.373 52.224 242.437 51.296 242.565 50.272C242.693 49.184 242.885 48.032 243.141 46.816L248.901 19.84H245.733L246.501 16Z" fill="black"/>
</svg>
