<svg width="650" height="650" viewBox="0 0 650 650" fill="none" xmlns="http://www.w3.org/2000/svg">
<rect width="650" height="650" rx="100" fill="#121221"/>
<path d="M89.3 283.6H105.2V252.7H194.9L115.7 436H138.8L218 251.8V235H89.3V283.6ZM256.423 294.1C256.423 333.1 278.923 352.6 323.923 352.6C339.123 352.6 354.523 350.3 370.123 345.7C369.523 375.7 365.823 396 359.023 406.6C352.423 417.2 340.323 422.5 322.723 422.5C306.923 422.5 295.523 418.9 288.523 411.7C281.523 404.5 278.023 393.8 278.023 379.6H259.423C259.623 399.4 264.623 414.5 274.423 424.9C284.223 435.1 300.523 440.2 323.323 440.2C335.123 440.2 345.123 438.6 353.323 435.4C361.723 432 368.323 427.5 373.123 421.9C378.123 416.3 381.923 408.8 384.523 399.4C387.323 389.8 389.123 380 389.923 370C390.923 360 391.423 347.6 391.423 332.8C391.423 313.8 390.623 298.5 389.023 286.9C387.423 275.1 384.223 264.7 379.423 255.7C374.623 246.7 367.823 240.3 359.023 236.5C350.223 232.7 338.823 230.8 324.823 230.8C301.023 230.8 283.723 236.3 272.923 247.3C262.323 258.1 256.823 273.7 256.423 294.1ZM325.123 335.5C308.323 335.5 296.123 331.6 288.523 323.8C281.123 315.8 277.423 305.9 277.423 294.1C277.423 279.1 281.023 267.8 288.223 260.2C295.623 252.4 307.723 248.5 324.523 248.5C342.923 248.5 355.123 253.9 361.123 264.7C367.123 275.3 370.223 296.9 370.423 329.5C355.223 333.5 340.123 335.5 325.123 335.5ZM437.347 283.6H453.247V252.7H542.947L463.747 436H486.847L566.047 251.8V235H437.347V283.6Z" fill="#A3A3C2"/>
</svg>
