<svg width="1125" height="1169" viewBox="0 0 1125 1169" fill="none" xmlns="http://www.w3.org/2000/svg">
	<line x1="482.422" y1="651.223" x2="1051.28" y2="88.7248" stroke="#0F3B6E" stroke-width="50"/>
	<circle cx="1000" cy="125" r="125" fill="#0F3B6E"/>
	<circle cx="500" cy="669" r="500" fill="#0F3B6E"/>
	<path d="M110.3 795V620H150.9L152.65 652.55L142.5 639.25C149.15 633.65 157.083 628.575 166.3 624.025C175.517 619.475 186.25 617.2 198.5 617.2C220.9 617.2 237.525 624.667 248.375 639.6C259.225 654.417 264.65 673.667 264.65 697.35V795H221.25V700.85C221.25 684.517 218.508 672.442 213.025 664.625C207.658 656.808 198.85 652.9 186.6 652.9C176.683 652.9 168.575 655.35 162.275 660.25C155.975 665.033 150.433 671.45 145.65 679.5L153.7 658.15V795H110.3ZM341.215 798.5C331.882 798.5 323.365 796.458 315.665 792.375C307.965 788.175 301.84 782.167 297.29 774.35C292.74 766.533 290.465 757.083 290.465 746C290.465 736.083 292.74 727.625 297.29 720.625C301.957 713.508 308.024 707.617 315.49 702.95C323.074 698.167 331.24 694.433 339.99 691.75C348.857 688.95 357.549 686.908 366.065 685.625C374.699 684.342 382.282 683.583 388.815 683.35C388.349 673.317 385.782 666.025 381.115 661.475C376.449 656.925 368.515 654.65 357.315 654.65C349.499 654.65 341.857 655.758 334.39 657.975C327.04 660.075 318.699 663.4 309.365 667.95L305.515 632.6C316.015 627.467 326.515 623.617 337.015 621.05C347.632 618.483 358.365 617.2 369.215 617.2C382.282 617.2 393.54 619.533 402.99 624.2C412.44 628.867 419.732 636.392 424.865 646.775C429.999 657.042 432.565 670.633 432.565 687.55V734.8C432.565 743.55 432.974 749.908 433.79 753.875C434.607 757.725 436.124 760.175 438.34 761.225C440.557 762.275 443.765 762.8 447.965 762.8H453.565L449.715 798.5H433.965C427.432 798.5 421.599 797.625 416.465 795.875C411.449 794.242 407.132 791.908 403.515 788.875C399.899 785.842 396.982 782.283 394.765 778.2C389.049 784.617 381.29 789.633 371.49 793.25C361.807 796.75 351.715 798.5 341.215 798.5ZM359.415 765.25C363.265 765.25 368.049 764.258 373.765 762.275C379.482 760.175 384.615 756.967 389.165 752.65V712.75C380.999 713.1 372.832 714.442 364.665 716.775C356.499 719.108 349.674 722.55 344.19 727.1C338.707 731.65 335.965 737.367 335.965 744.25C335.965 751.367 337.832 756.675 341.565 760.175C345.299 763.558 351.249 765.25 359.415 765.25ZM527.432 798.5C515.882 798.5 505.44 797.392 496.107 795.175C486.89 792.958 477.615 789.75 468.282 785.55L472.132 748.45C481.115 753.7 489.923 757.958 498.557 761.225C507.307 764.375 516.465 765.95 526.032 765.95C534.665 765.95 541.257 764.55 545.807 761.75C550.357 758.95 552.632 754.517 552.632 748.45C552.632 743.9 551.407 740.167 548.957 737.25C546.623 734.333 543.065 731.708 538.282 729.375C533.498 727.042 527.548 724.533 520.432 721.85C509.698 717.883 500.54 713.567 492.957 708.9C485.49 704.233 479.773 698.633 475.807 692.1C471.957 685.45 470.032 677.283 470.032 667.6C470.032 657.567 472.657 648.7 477.907 641C483.157 633.3 490.623 627.292 500.307 622.975C509.99 618.658 521.482 616.5 534.782 616.5C545.865 616.5 555.782 617.725 564.532 620.175C573.398 622.625 581.565 625.95 589.032 630.15L585.182 667.25C577.365 661.767 569.49 657.275 561.557 653.775C553.623 650.158 544.932 648.35 535.482 648.35C528.015 648.35 522.24 649.867 518.157 652.9C514.073 655.933 512.032 660.25 512.032 665.85C512.032 672.617 514.89 677.692 520.607 681.075C526.323 684.458 535.482 688.6 548.082 693.5C556.248 696.65 563.307 699.917 569.257 703.3C575.323 706.683 580.34 710.417 584.307 714.5C588.273 718.583 591.19 723.25 593.057 728.5C595.04 733.633 596.032 739.583 596.032 746.35C596.032 757.433 593.348 766.883 587.982 774.7C582.732 782.4 574.973 788.292 564.707 792.375C554.557 796.458 542.132 798.5 527.432 798.5ZM625.73 795V620H662.83L665.63 645.55L659.33 637.85C665.98 632.6 673.913 627.875 683.13 623.675C692.463 619.358 703.313 617.2 715.68 617.2C725.013 617.2 733.238 618.6 740.355 621.4C747.588 624.083 753.771 627.992 758.905 633.125C764.038 638.142 768.18 644.15 771.33 651.15L760.83 648.7C766.43 638.667 774.596 630.908 785.33 625.425C796.18 619.942 808.43 617.2 822.08 617.2C838.18 617.2 851.305 620.525 861.455 627.175C871.605 633.825 879.071 643.217 883.855 655.35C888.638 667.367 891.03 681.483 891.03 697.7V795H847.63V700.85C847.63 684.517 845.063 672.442 839.93 664.625C834.913 656.808 826.513 652.9 814.73 652.9C808.896 652.9 803.763 653.95 799.33 656.05C795.013 658.033 791.396 661.008 788.48 664.975C785.68 668.825 783.58 673.55 782.18 679.15C780.78 684.633 780.08 690.817 780.08 697.7V795H736.68V700.85C736.68 690 735.513 681.017 733.18 673.9C730.963 666.783 727.346 661.533 722.33 658.15C717.43 654.65 711.013 652.9 703.08 652.9C692.93 652.9 684.588 655.292 678.055 660.075C671.638 664.742 665.98 671.1 661.08 679.15L669.13 655.7V795H625.73Z" fill="white"/>
</svg>